<?xml version="1.0" encoding="UTF-8"?>
<svg id="Melcore" xmlns="http://www.w3.org/2000/svg" viewBox="0 0 900 900">
  <defs>
    <style>
      .cls-1 {
        fill: #06001e;
      }

      .cls-1, .cls-2 {
        stroke-width: 0px;
      }

      .cls-2 {
        fill: none;
      }
    </style>
  </defs>
  <rect id="marge" class="cls-2" width="900" height="900"/>
  <path id="logo" class="cls-1" d="m654.76,353.98c-2.07-4.34-4.51-6.72-7.17-6.72-12.05,0-18.08,49.66-24.1,99.32h0s0,0,0,0c-8.24-80.28-16.85-160.25-31.59-174.3-.02-.02-.02-.02-.09-.09-.13-.1-.12-.1-.43-.35-20.99-17.06-45.12-30.39-71.38-39.02-5.67-1.87-11.43-3.52-17.29-4.94-.09-.02-.97-.32-2.35-.32-25.37.08-38.05,109.49-50.73,218.99-12.68-109.5-25.36-218.92-50.73-218.99-1.38,0-2.25.3-2.35.32-5.86,1.42-11.62,3.07-17.29,4.94-26.26,8.63-50.39,21.97-71.38,39.02-.31.26-.3.25-.43.35-.07.07-.07.07-.09.09-14.75,14.05-23.35,94.02-31.59,174.3v.02s0-.01,0-.01c-6.02-49.66-12.05-99.32-24.1-99.32-2.66,0-5.11,2.38-7.17,6.72-13.31,27.98-19.87,59.58-19.87,92.59s7.11,64.36,19.87,92.6c13.81,30.54,35.04,59.03,62.99,81.82,1.3,1.12,2.74,1.9,4.48,1.9,18.1,0,27.15-88.16,36.19-176.32,12.25,105.84,24.51,211.68,48.22,218.66,0,0,0,.01,0,0,.3.08.6.15.9.22,16.79,4,34.31,6.12,52.32,6.12s35.53-2.12,52.32-6.12c.3-.07.6-.14.9-.22.01.01.01,0,.01,0,23.71-6.98,35.97-112.82,48.22-218.66,9.04,88.16,18.09,176.32,36.19,176.32,1.74,0,3.18-.78,4.48-1.9,27.96-22.79,49.18-51.29,62.99-81.82,12.76-28.24,19.87-59.59,19.87-92.6s-6.56-64.61-19.87-92.59Zm-321.5,90.87c0,.06-.01.13-.02.19-3.94,38.47-8.02,78.25-12.81,109.42-4.22,27.5-8.04,41.52-10.65,48.6-17.18-15.6-30.73-32.07-41.52-50.51,12.16-15.88,17.17-55.93,25.47-132.92,3.4-31.53,6.91-64.13,11.25-90.19,6.19-37.26,11.51-44.91,12.67-46.18,13.85-11.21,29.2-20.66,45.44-28.03-11.02,36.03-19.07,96.81-29.81,189.63Zm202.91.1c-5.06,43.71-11.35,98.08-18.68,138.83-9.53,53-17.56,64.8-20.01,67.27-.21.05-.42.1-.64.15-5.72,1.33-23.14,5.38-47.18,5.38h0c-7.13,0-14.23-.36-21.27-1.06,14.46-32.24,23.44-97.53,36.13-207.2,5.67-49.01,11.54-99.7,18.48-138.86,8.51-48.05,15.85-62.22,18.96-66.28,9.05,2.14,34.89,9.43,63.1,27.98-12.34,23.69-18.88,76.31-28.89,173.8Zm88.65,117.53c4.45-28.3,8.59-65.76,13.58-114.29,2.49-20.5,5.06-41.68,8.01-58.58.72-4.11,1.41-7.67,2.07-10.76,7.4,21.7,11.14,44.4,11.14,67.72,0,41.87-12.29,81.96-34.81,115.91Z"/>
</svg>